<svg width="34" height="34" viewBox="0 0 34 34" fill="none" xmlns="http://www.w3.org/2000/svg">
<g clip-path="url(#clip0_548_2252)">
<path d="M9.28393 13.3137H9.55761C10.6113 13.3137 11.4734 14.1758 11.4734 15.2295V24.8083C11.4734 25.862 10.6113 26.724 9.55761 26.724H9.28393C8.23026 26.724 7.36816 25.862 7.36816 24.8083V15.2295C7.36816 14.1758 8.23026 13.3137 9.28393 13.3137ZM16.947 7.56641C18.0007 7.56641 18.8627 8.4285 18.8627 9.48217V24.8083C18.8627 25.862 18.0007 26.724 16.947 26.724C15.8933 26.724 15.0312 25.862 15.0312 24.8083V9.48217C15.0312 8.4285 15.8933 7.56641 16.947 7.56641ZM24.61 18.5136C25.6637 18.5136 26.5258 19.3757 26.5258 20.4294V24.8083C26.5258 25.862 25.6637 26.724 24.61 26.724C23.5564 26.724 22.6943 25.862 22.6943 24.8083V20.4294C22.6943 19.3757 23.5564 18.5136 24.61 18.5136Z" fill="#ED8936"/>
</g>
<defs>
<clipPath id="clip0_548_2252">
<rect width="32.8417" height="32.8417" fill="white" transform="translate(0.526367 0.722656)"/>
</clipPath>
</defs>
</svg>
